<svg xmlns="http://www.w3.org/2000/svg" id="freepik_stories-air-support" class="animated" version="1.1" viewBox="0 0 500 500">
  <style>
    @keyframes floating{0%,to{opacity:1;transform:translateY(0)}50%{transform:translateY(-10px)}}svg#freepik_stories-air-support:not(.animated) .animable{opacity:0}
  </style>
  <g id="freepik--background-complete--inject-137" class="animable">
    <path id="elrnbutss8kf" fill="#ebebeb" d="M0 382.4h500v.25H0z" class="animable" transform-origin="250px 382.525px"/>
    <path id="elw0m5e4und3k" fill="#ebebeb" d="M416.78 394.17h33.12v.25h-33.12z" class="animable" transform-origin="433.34px 394.295px"/>
    <path id="elymqqrgyvn7m" fill="#ebebeb" d="M238.24 386.69h146.54v.25H238.24z" class="animable" transform-origin="311.51px 386.815px"/>
    <path id="elglgutbddn7t" fill="#ebebeb" d="M52.46 386.57h15.21v.25H52.46z" class="animable" transform-origin="60.065px 386.695px"/>
    <path id="el8uag7awpmc2" fill="#ebebeb" d="M76.57 386.57h34.32v.25H76.57z" class="animable" transform-origin="93.73px 386.695px"/>
    <path id="elschhknyotqj" fill="#ebebeb" d="M131.47 390.79h44.2v.25h-44.2z" class="animable" transform-origin="153.57px 390.915px"/>
    <path id="el8aocqt19v7c" fill="#ebebeb" d="M238.45 337.8H45.35a5.71 5.71 0 0 1-5.71-5.71V60.66A5.72 5.72 0 0 1 45.35 55h193.1a5.71 5.71 0 0 1 5.7 5.71v271.38a5.71 5.71 0 0 1-5.7 5.71ZM45.35 55.2a5.48 5.48 0 0 0-5.46 5.46v271.43a5.48 5.48 0 0 0 5.46 5.46h193.1a5.46 5.46 0 0 0 5.45-5.46V60.66a5.46 5.46 0 0 0-5.45-5.46Z" class="animable" transform-origin="141.895px 196.4px"/>
    <path id="el1mul0lg66bd" fill="#ebebeb" d="M453.31 337.8h-193.1a5.73 5.73 0 0 1-5.71-5.71V60.66a5.72 5.72 0 0 1 5.71-5.66h193.1a5.71 5.71 0 0 1 5.69 5.66v271.43a5.7 5.7 0 0 1-5.69 5.71ZM260.21 55.2a5.48 5.48 0 0 0-5.46 5.46v271.43a5.48 5.48 0 0 0 5.46 5.46h193.1a5.48 5.48 0 0 0 5.46-5.46V60.66a5.48 5.48 0 0 0-5.46-5.46Z" class="animable" transform-origin="356.75px 196.4px"/>
    <path id="elc5rqs5xr0e" fill="#f0f0f0" d="M179.68 199.28h69.91V382.4h-69.91z" class="animable" transform-origin="214.635px 290.84px"/>
    <path id="elq2io8kega7e" fill="#fafafa" d="M160.49 199.28h82.1V382.4h-82.1z" class="animable" transform-origin="201.54px 290.84px"/>
    <path id="elkzaeitjmef9" fill="#ebebeb" d="M164.72 205.04h9.68v9.68h-9.68z" class="animable" transform-origin="169.56px 209.88px"/>
    <path id="elmke8esivuu" fill="#ebebeb" d="M180.51 205.04h9.68v9.68h-9.68z" class="animable" transform-origin="185.35px 209.88px"/>
    <path id="elogxae6k5qlj" fill="#ebebeb" d="M196.3 205.04h9.68v9.68h-9.68z" class="animable" transform-origin="201.14px 209.88px"/>
    <path id="eljrnwyn1f0vd" fill="#ebebeb" d="M212.08 205.04h9.68v9.68h-9.68z" class="animable" transform-origin="216.92px 209.88px"/>
    <path id="elcwdr3f6e3eg" fill="#ebebeb" d="M227.87 205.04h9.68v9.68h-9.68z" class="animable" transform-origin="232.71px 209.88px"/>
    <path id="elq6wfjtf5lym" fill="#ebebeb" d="M164.72 218.08h9.68v9.68h-9.68z" class="animable" transform-origin="169.56px 222.92px"/>
    <path id="el7av376a163b" fill="#ebebeb" d="M180.51 218.08h9.68v9.68h-9.68z" class="animable" transform-origin="185.35px 222.92px"/>
    <path id="elg18oyt2vg3w" fill="#ebebeb" d="M196.3 218.08h9.68v9.68h-9.68z" class="animable" transform-origin="201.14px 222.92px"/>
    <path id="elr82qazcftj9" fill="#ebebeb" d="M212.08 218.08h9.68v9.68h-9.68z" class="animable" transform-origin="216.92px 222.92px"/>
    <path id="elspfx2g9vlz" fill="#ebebeb" d="M227.87 218.08h9.68v9.68h-9.68z" class="animable" transform-origin="232.71px 222.92px"/>
    <path id="ela68vcnhcymd" fill="#ebebeb" d="M164.72 231.11h9.68v9.68h-9.68z" class="animable" transform-origin="169.56px 235.95px"/>
    <path id="el3qz27w88dc5" fill="#ebebeb" d="M180.51 231.11h9.68v9.68h-9.68z" class="animable" transform-origin="185.35px 235.95px"/>
    <path id="elzab2rxx5j9" fill="#ebebeb" d="M196.3 231.11h9.68v9.68h-9.68z" class="animable" transform-origin="201.14px 235.95px"/>
    <path id="el4h27fe2vhl7" fill="#ebebeb" d="M212.08 231.11h9.68v9.68h-9.68z" class="animable" transform-origin="216.92px 235.95px"/>
    <path id="elxhbh99rwhu" fill="#ebebeb" d="M227.87 231.11h9.68v9.68h-9.68z" class="animable" transform-origin="232.71px 235.95px"/>
    <path id="elnrjn8tqo95n" fill="#ebebeb" d="M164.72 244.14h9.68v9.68h-9.68z" class="animable" transform-origin="169.56px 248.98px"/>
    <path id="elbzwl55znf3o" fill="#ebebeb" d="M180.51 244.14h9.68v9.68h-9.68z" class="animable" transform-origin="185.35px 248.98px"/>
    <path id="eloahwqoirqv" fill="#ebebeb" d="M196.3 244.14h9.68v9.68h-9.68z" class="animable" transform-origin="201.14px 248.98px"/>
    <path id="elbss9nivlpqr" fill="#ebebeb" d="M212.08 244.14h9.68v9.68h-9.68z" class="animable" transform-origin="216.92px 248.98px"/>
    <path id="elt9rlra8wuhb" fill="#ebebeb" d="M227.87 244.14h9.68v9.68h-9.68z" class="animable" transform-origin="232.71px 248.98px"/>
    <path id="el7fk38ncyah" fill="#ebebeb" d="M164.72 257.17h9.68v9.68h-9.68z" class="animable" transform-origin="169.56px 262.01px"/>
    <path id="elahmsxm5yt9d" fill="#ebebeb" d="M180.51 257.17h9.68v9.68h-9.68z" class="animable" transform-origin="185.35px 262.01px"/>
    <path id="el66dlq0zkxo5" fill="#ebebeb" d="M196.3 257.17h9.68v9.68h-9.68z" class="animable" transform-origin="201.14px 262.01px"/>
    <path id="el1thzmmcftzt" fill="#ebebeb" d="M212.08 257.17h9.68v9.68h-9.68z" class="animable" transform-origin="216.92px 262.01px"/>
    <path id="elkor35zon0ff" fill="#ebebeb" d="M227.87 257.17h9.68v9.68h-9.68z" class="animable" transform-origin="232.71px 262.01px"/>
    <path id="el1oqxpo6kst" fill="#e6e6e6" d="M268.56 176.5h70.95v205.9h-70.95z" class="animable" transform-origin="304.035px 279.45px"/>
    <path id="ell2riimmzl4s" fill="#f5f5f5" d="M249.38 176.5h69.54v205.9h-69.54z" class="animable" transform-origin="284.15px 279.45px"/>
    <path id="elrfjozxrwo8j" fill="#e0e0e0" d="M254.95 183.67H314v7.65h-59.05z" class="animable" transform-origin="284.475px 187.495px"/>
    <path id="el5glk9ffpkey" fill="#e0e0e0" d="M254.95 195.45H314v7.65h-59.05z" class="animable" transform-origin="284.475px 199.275px"/>
    <path id="elwd2gezkzns" fill="#e0e0e0" d="M254.95 207.23H314v7.65h-59.05z" class="animable" transform-origin="284.475px 211.055px"/>
    <path id="el0iu2onjeqju7" fill="#e0e0e0" d="M254.95 219.01H314v7.65h-59.05z" class="animable" transform-origin="284.475px 222.835px"/>
    <path id="elglv0trge2ct" fill="#e0e0e0" d="M254.95 230.8H314v7.65h-59.05z" class="animable" transform-origin="284.475px 234.625px"/>
    <path id="elqarthhxd0g" fill="#e6e6e6" d="M89.55 273.12h70.95V382.4H89.55z" class="animable" transform-origin="125.025px 327.76px"/>
    <path id="elogwpiydjmt" fill="#f0f0f0" d="M70.36 273.12h69.54V382.4H70.36z" class="animable" transform-origin="105.13px 327.76px"/>
    <path id="el3blktnqmwy6" fill="#e0e0e0" d="M75.61 279.45h59.05v7.65H75.61z" class="animable" transform-origin="105.135px 283.275px"/>
    <path id="elbzqlo4g817a" fill="#e0e0e0" d="M75.61 291.23h59.05v7.65H75.61z" class="animable" transform-origin="105.135px 295.055px"/>
    <path id="elcs97zl0ru1" fill="#e0e0e0" d="M75.61 303.01h59.05v7.65H75.61z" class="animable" transform-origin="105.135px 306.835px"/>
    <path id="elgn6qqsq5gv9" fill="#e0e0e0" d="M75.61 314.79h59.05v7.65H75.61z" class="animable" transform-origin="105.135px 318.615px"/>
    <path id="elv2b8gfclrjb" fill="#e0e0e0" d="M75.61 326.58h59.05v7.65H75.61z" class="animable" transform-origin="105.135px 330.405px"/>
    <path id="el1sc8ks43rv6" fill="#e6e6e6" d="M358.69 273.12h70.95V382.4h-70.95z" class="animable" transform-origin="394.165px 327.76px"/>
    <path id="elwp6mkfv303" fill="#f0f0f0" d="M339.51 273.12h69.54V382.4h-69.54z" class="animable" transform-origin="374.28px 327.76px"/>
    <path id="elzfi5grcctrf" fill="#fafafa" d="M345.76 279.45h9.68v9.68h-9.68z" class="animable" transform-origin="350.6px 284.29px"/>
    <path id="eleep7w2cx6wg" fill="#fafafa" d="M361.55 279.45h9.68v9.68h-9.68z" class="animable" transform-origin="366.39px 284.29px"/>
    <path id="ely9onzyejk4a" fill="#fafafa" d="M377.33 279.45h9.68v9.68h-9.68z" class="animable" transform-origin="382.17px 284.29px"/>
    <path id="elyhsbtwhdx2n" fill="#fafafa" d="M393.12 279.45h9.68v9.68h-9.68z" class="animable" transform-origin="397.96px 284.29px"/>
    <path id="ellfn3nk7zcfb" fill="#fafafa" d="M345.76 293.98h9.68v9.68h-9.68z" class="animable" transform-origin="350.6px 298.82px"/>
    <path id="el2w65d4ejxg6" fill="#fafafa" d="M361.55 293.98h9.68v9.68h-9.68z" class="animable" transform-origin="366.39px 298.82px"/>
    <path id="el0gmclv8cfn88" fill="#fafafa" d="M377.33 293.98h9.68v9.68h-9.68z" class="animable" transform-origin="382.17px 298.82px"/>
    <path id="el1715bpr96te" fill="#fafafa" d="M393.12 293.98h9.68v9.68h-9.68z" class="animable" transform-origin="397.96px 298.82px"/>
    <path id="elcl6spbf1wa9" fill="#fafafa" d="M345.76 308.51h9.68v9.68h-9.68z" class="animable" transform-origin="350.6px 313.35px"/>
    <path id="elbz2uq2c89wr" fill="#fafafa" d="M361.55 308.51h9.68v9.68h-9.68z" class="animable" transform-origin="366.39px 313.35px"/>
    <path id="el7y1gyde3p6y" fill="#fafafa" d="M377.33 308.51h9.68v9.68h-9.68z" class="animable" transform-origin="382.17px 313.35px"/>
    <path id="el3o5p2mldrlh" fill="#fafafa" d="M393.12 308.51h9.68v9.68h-9.68z" class="animable" transform-origin="397.96px 313.35px"/>
    <path id="eld5vy6zgsag" fill="#fafafa" d="M345.76 323.04h9.68v9.68h-9.68z" class="animable" transform-origin="350.6px 327.88px"/>
    <path id="el4ucpjb7jqp7" fill="#fafafa" d="M361.55 323.04h9.68v9.68h-9.68z" class="animable" transform-origin="366.39px 327.88px"/>
    <path id="el85ld7ij8im6" fill="#fafafa" d="M377.33 323.04h9.68v9.68h-9.68z" class="animable" transform-origin="382.17px 327.88px"/>
    <path id="elo0nam8ip2z8" fill="#fafafa" d="M393.12 323.04h9.68v9.68h-9.68z" class="animable" transform-origin="397.96px 327.88px"/>
    <path id="elj618gplyjc" fill="#f5f5f5" d="M52.46 185.85h93s6-11.9-4.25-11.9c0 0-1.86-13.11-11.06-14.88s-14.47 9.33-14.47 9.33-4.23-24.15-15.85-21.65-11.63 13.6-11.63 13.6-6.64-11.35-15.8-6.94-6.4 22.76-6.4 22.76-13.22-5.07-13.54 9.68Z" class="animable" transform-origin="99.8326px 166.209px"/>
    <path id="elq64xgtxs21e" fill="#f5f5f5" d="M337.17 90.49h73.5s-6.36-9.67-17.69-6.91c0 0 2.77-12.71-9.94-9.94 0 0-6.08-13.54-15.2-10s-7.74 16.58-7.74 16.58-21-6.03-22.93 10.27Z" class="animable" transform-origin="373.92px 76.7699px"/>
    <path id="elujilz8v02d" fill="#f5f5f5" d="M454.57 212.38H348.32s9.18-14 25.56-10c0 0-4-18.38 14.38-14.38 0 0 8.79-19.58 22-14.38s11.18 24 11.18 24 30.33-8.81 33.13 14.76Z" class="animable" transform-origin="401.445px 192.561px"/>
  </g>
  <g id="freepik--Shadow--inject-137" class="animable">
    <g id="freepik--shape--inject-137" class="animable">
      <ellipse id="freepik--path--inject-44--inject-137" cx="250" cy="416.24" fill="#f5f5f5" class="animable" rx="193.89" ry="11.32" transform-origin="250px 416.24px"/>
    </g>
  </g>
  <g id="freepik--plane-1--inject-137" class="animable">
    <path id="el87pcb3wys44" fill="#52cc75" d="M370 143.65c-1.1 3.41-5.32 4.68-5.32 4.68L170.8 158.65c-13.74.26-23.53-1.43-30.49-4a33.32 33.32 0 0 1-10.8-6.06c-6.35-5.53-6.44-11.28-6.44-11.28l26.77-1.31 7.07-.36 8.15-.42c60.27-3.07 164.93-8.37 172.5-8.39a45 45 0 0 1 11.89 2.08 73.83 73.83 0 0 1 10.27 3.87c4 1.89 7.42 4 9.17 5.93a4.59 4.59 0 0 1 1.26 2.21 5.73 5.73 0 0 1-.15 2.73Z" class="animable" transform-origin="246.659px 142.753px"/>
    <path id="elbf9khxsgjum" fill="#52cc75" d="m165.06 135.21-8.15.42-7.07.36-26.77 1.37-3.5-29 11.72-.49s2.09 3.75 10.08 14.87 23.69 12.47 23.69 12.47Z" class="animable" transform-origin="142.315px 122.615px"/>
    <path id="elzy8yyghhfw" fill="#263238" d="M370 143.65c-1.1 3.41-5.32 4.68-5.32 4.68L170.8 158.65c-13.74.26-23.53-1.43-30.49-4Z" class="animable" transform-origin="255.155px 151.163px"/>
    <path id="eltz3hfy8uvjc" d="m368.89 138.7-239.38 9.94c-6.35-5.53-6.43-11.28-6.43-11.28v-.31l-.22-1.84-3.24-26.82 11.71-.49s2.1 3.75 10.09 14.87 23.69 12.44 23.69 12.44c60.26-3.07 164.92-8.37 172.49-8.39a45 45 0 0 1 11.89 2.08c.43.12.85.25 1.28.39a73.88 73.88 0 0 1 9 3.48c.53.25 1 .5 1.55.76a26.93 26.93 0 0 1 7.57 5.17Z" class="animable" opacity=".1" transform-origin="244.255px 128.27px"/>
    <rect id="elrdarf5bzzk" width="3.4" height="4.75" x="173.97" y="138.99" fill="#fff" class="animable" rx="1.49" transform="rotate(-2.42)" transform-origin="175.67px 141.365px"/>
    <rect id="elc69g2kla1a9" width="3.4" height="4.75" x="180.97" y="138.69" fill="#fff" class="animable" rx="1.49" transform="rotate(-5.33)" transform-origin="182.67px 141.065px"/>
    <rect id="elddec15l1jco" width="3.4" height="4.75" x="188.11" y="138.39" fill="#fff" class="animable" rx="1.49" transform="rotate(-2.43)" transform-origin="189.81px 140.765px"/>
    <rect id="el8wfnfj2s62t" width="3.4" height="4.75" x="195.19" y="138.09" fill="#fff" class="animable" rx="1.49" transform="rotate(-2.42)" transform-origin="196.89px 140.465px"/>
    <rect id="el32ix1sx1b8q" width="3.4" height="4.75" x="202.72" y="137.77" fill="#fff" class="animable" rx="1.49" transform="rotate(-2.42)" transform-origin="204.42px 140.145px"/>
    <rect id="elq2v12rfgjzf" width="3.4" height="4.75" x="210.08" y="137.46" fill="#fff" class="animable" rx="1.49" transform="rotate(-2.42)" transform-origin="211.78px 139.835px"/>
    <rect id="elnmiru264mzt" width="3.4" height="4.75" x="277.4" y="134.62" fill="#fff" class="animable" rx="1.49" transform="rotate(-2.42)" transform-origin="279.1px 136.995px"/>
    <rect id="elr8v3bhuwip7" width="3.4" height="4.75" x="284.9" y="134.31" fill="#fff" class="animable" rx="1.49" transform="rotate(-2.29)" transform-origin="286.6px 136.685px"/>
    <rect id="elekzueugn0e" width="3.4" height="4.75" x="291.57" y="134.02" fill="#fff" class="animable" rx="1.49" transform="rotate(-2.42)" transform-origin="293.27px 136.395px"/>
    <rect id="eli5o1t3ehm9r" width="3.4" height="4.75" x="298.55" y="133.73" fill="#fff" class="animable" rx="1.49" transform="rotate(-2.42)" transform-origin="300.25px 136.105px"/>
    <rect id="el66plc2iulgr" width="3.4" height="4.75" x="305.12" y="133.45" fill="#fff" class="animable" rx="1.49" transform="rotate(-2.42)" transform-origin="306.82px 135.825px"/>
    <path id="elh2kl3onl48" fill="#263238" d="m275.08 137.66-71.86-23.51A23.62 23.62 0 0 0 195 113l-16.1.55 42 26.72Z" class="animable" transform-origin="226.99px 126.627px"/>
    <path id="elovvr42ktv8d" fill="#263238" d="m244.07 154.75-14.93 14 5.79.27a23.06 23.06 0 0 0 8.24-1.13l47.36-15.62Z" class="animable" transform-origin="259.835px 160.657px"/>
    <path id="eltn0ob9mg8e" fill="#263238" d="m187.07 153.88-2.54-2.77-23.9-5.51a32.87 32.87 0 0 0-9.33-.78l-10.41.62 20.17 9.69Z" class="animable" transform-origin="163.98px 149.946px"/>
    <path id="elmlkcyp5ek7l" fill="#263238" d="m165.07 135.21-42 1.84-.22-1.84-1.4-11.61-.65-5.36-1.19-9.85 11.71-.49s1.42 2.53 6.35 9.6c1 1.47 2.2 3.13 3.56 5l.18.25c7.96 11.14 23.66 12.46 23.66 12.46Z" class="animable" transform-origin="142.34px 122.475px"/>
    <path id="elgm39g6gp85e" fill="#fff" d="m141.2 122.52-19.78 1.08-.65-5.36 16.87-.74c1.02 1.5 2.2 3.13 3.56 5.02Z" class="animable" transform-origin="130.985px 120.55px"/>
    <path id="el9va2mvtq3tw" fill="#fff" d="M361.27 133.53c-10.2.71-39.07 2.07-43.33 1.76-5.26-.39-4.57-4.33-4.57-4.33l37.36-1.67a73.88 73.88 0 0 1 9 3.48c.52.23 1.04.5 1.54.76Z" class="animable" transform-origin="337.305px 132.313px"/>
    <path id="eli4rvbek54oo" fill="none" stroke="#263238" stroke-linecap="round" stroke-linejoin="round" stroke-width=".5" d="M149 211.11c.88-1.86 58.31-58.83 58.31-58.83l6.8 67.51" class="animable" transform-origin="181.555px 186.035px"/>
    <path id="elzzg7fvkiyj" fill="none" stroke="#263238" stroke-linecap="round" stroke-linejoin="round" stroke-width=".5" d="m159.97 212.09 47.36-59.81 15.44 68.99" class="animable" transform-origin="191.37px 186.775px"/>
    <path id="el9f4xdh5j01v" fill="#52cc75" d="M154.22 216.19h65.84v47.32h-65.84z" class="animable" transform="rotate(8.1)" transform-origin="187.14px 239.85px"/>
    <path id="elkmh5jaye8c" d="M154.22 216.19h65.84v47.32h-65.84z" class="animable" opacity=".3" transform="rotate(8.1)" transform-origin="187.14px 239.85px"/>
    <path id="el6hz60c4qo" fill="#52cc75" d="M145.29 214.92h65.84v47.32h-65.84z" class="animable" transform="rotate(8.1)" transform-origin="178.21px 238.58px"/>
    <circle id="elblpcyfl0wnq" cx="178.14" cy="239.08" r="17.8" fill="#fff" class="animable" opacity=".5" transform="rotate(-1.85)" transform-origin="178.14px 239.08px"/>
    <path id="elkznqcnarr9f" fill="#fff" d="M205.14 224.18h11.98v4.01h-11.98z" class="animable" opacity=".5" transform="rotate(8.1)" transform-origin="211.13px 226.185px"/>
    <path id="elau3bptwt1vj" fill="#fff" d="M200.61 256.02h11.98v4.01h-11.98z" class="animable" opacity=".5" transform="rotate(8.1)" transform-origin="206.6px 258.025px"/>
    <path id="eldv8k3gbu1rj" fill="#fff" d="m167.28 230.54 3.56 2.19a1 1 0 0 1 .3 1.29l-1.59 2.57a.93.93 0 0 1-1.27.3l-3.57-2.19a4.79 4.79 0 0 0 6.43 4.61 3.52 3.52 0 0 1 3.22.46l12.64 8.79a2.62 2.62 0 0 0 3.65-.57 2.57 2.57 0 0 0-.65-3.58l-.24-.15-13.62-7.35a3.54 3.54 0 0 1-1.83-2.69A4.79 4.79 0 0 0 169 230a4.66 4.66 0 0 0-1.66.52Zm22.62 16.83a1 1 0 0 1-1.35.31 1 1 0 0 1 1-1.65 1 1 0 0 1 .32 1.34Z" class="animable" transform-origin="177.909px 239.514px"/>
    <path id="el1is83wle8uw" fill="none" stroke="#263238" stroke-linecap="round" stroke-linejoin="round" stroke-width=".5" d="m297.92 283.89 2.33-135.25-60.52 129.28" class="animable" transform-origin="269.99px 216.265px"/>
    <path id="elm6rmkmedzx" fill="none" stroke="#263238" stroke-linecap="round" stroke-linejoin="round" stroke-width=".5" d="m305.5 285.53-5.25-136.89-50.22 131.01" class="animable" transform-origin="277.765px 217.085px"/>
    <path id="ela8mw0q9ce8t" fill="#52cc75" d="M244.56 281.19h59.07v42.45h-59.07z" class="animable" transform="rotate(6.85)" transform-origin="274.095px 302.415px"/>
    <path id="ellbelsgp3dm" d="M244.56 281.19h59.07v42.45h-59.07z" class="animable" opacity=".3" transform="rotate(6.85)" transform-origin="274.095px 302.415px"/>
    <path id="elf7ffj5o9qjk" fill="#52cc75" d="M236.53 280.22h59.07v42.45h-59.07z" class="animable" transform="rotate(6.85)" transform-origin="266.065px 301.445px"/>
    <circle id="elfloxrbfbget" cx="266.01" cy="301.9" r="15.97" fill="#fff" class="animable" opacity=".5" transform="rotate(-58.87)" transform-origin="266.01px 301.9px"/>
    <path id="elw7xkvykivh" fill="#fff" d="M256.33 298.12c.49-.58 1.36-.47 2.07.16l4.3 4.18-1.93 2.22s-2.88-3.91-3.48-4.69-1.29-1.48-.96-1.87Z" class="animable" opacity=".8" style="isolation:isolate" transform-origin="259.472px 301.21px"/>
    <path id="elhja5yfsecq8" fill="#fff" d="M261.07 298.49c.1-.82.94-1.07 1.91-.85s4.75 1.93 4.75 1.93 4.3-.74 6.53.16c.75.29.78 1 .53 1.63a1.27 1.27 0 0 1-1.37.88l-6.24.05a1.32 1.32 0 0 1-.34 0 40.32 40.32 0 0 0-4.77-2.85c-.9-.44-1.07-.58-1-.95Z" class="animable" transform-origin="267.993px 299.932px"/>
    <path id="el2b7bq86kwkr" fill="#fff" d="M274.76 300c-.66-.51-2.1-.57-3.59-.22a10.92 10.92 0 0 0-4.29 2.08h-.14l-4.69.36-4.91-3.94c-.8-.6-1.69-.66-2.1-.07-.28.4.51 1.08 1.22 1.82s3.17 3.38 3.95 4.23a1.69 1.69 0 0 0 .53.39l1.13.55a4.45 4.45 0 0 0 1.84.33l9.1-1 5.33 4.71.73-6Z" class="animable" transform-origin="266.926px 303.519px"/>
    <path id="elkj1moiw0yc" fill="#fff" d="M289.97 287.88h10.75v3.59h-10.75z" class="animable" opacity=".5" transform="rotate(6.85)" transform-origin="295.345px 289.675px"/>
    <path id="elaypf426v24s" fill="#fff" d="M286.53 316.53h10.75v3.59h-10.75z" class="animable" opacity=".5" transform="rotate(6.85)" transform-origin="291.905px 318.325px"/>
  </g>
  <g id="freepik--plane-2--inject-137" class="animable" style="animation:1.5s Infinite linear floating;animation-delay:0s">
    <path id="el7qtn5bjiilo" fill="#52cc75" d="M303.51 74.78a2.58 2.58 0 0 0-.75-1.2l-.42-.39a19.3 19.3 0 0 0-4.8-2.7l-.67-.27a40.8 40.8 0 0 0-5.12-1.65 25.81 25.81 0 0 0-6.19-.9h-.45c-2.09.08-17.43 1.42-36.43 3.12-5.27.46-10.82 1-16.45 1.47l-12.68-3.6a13.19 13.19 0 0 0-4.55-.46l-8.92.66 8.59 5-25 2.27a22.69 22.69 0 0 1-8.23-2.24 15.12 15.12 0 0 1-5.19-4.14c-1.72-2.21-3-3.88-3.88-5.11l-.07-.09-.32-.45-.32-.43-.06-.09-.23-.32-.05-.07-.21-.3-.6-.87-.07-.11v-.06l-3.79.31-2.69.22 2.51 15.58v.38a4.94 4.94 0 0 0 .26 1.2 10.34 10.34 0 0 0 3.55 4.92 18.73 18.73 0 0 0 6.13 3.12c3.92 1.25 9.39 2 17 1.52l40.58-3.77-8 8.1h3.22a12.66 12.66 0 0 0 4.55-.81l25.94-9.71L300.63 79s2.31-.79 2.85-2.71a3.21 3.21 0 0 0 .03-1.51Z" class="animable" transform-origin="233.773px 77.6402px"/>
    <path id="elx3pc9eegh9f" d="M303.51 74.78a2.58 2.58 0 0 0-.75-1.2l-.42-.39a19.3 19.3 0 0 0-4.8-2.7l-.67-.27a40.8 40.8 0 0 0-5.12-1.65 25.81 25.81 0 0 0-6.19-.9h-.45c-2.09.08-17.43 1.42-36.43 3.12-5.27.46-10.82 1-16.45 1.47l-12.68-3.6a13.19 13.19 0 0 0-4.55-.46l-8.92.66 8.59 5-25 2.27a22.69 22.69 0 0 1-8.23-2.24 15.12 15.12 0 0 1-5.19-4.14c-1.72-2.21-3-3.88-3.88-5.11l-.07-.09-.32-.45-.32-.43-.06-.09-.23-.32-.05-.07-.21-.3-.6-.87-.07-.11v-.06l-3.79.31-2.69.22 2.51 15.58v.38a4.94 4.94 0 0 0 .26 1.2 10.34 10.34 0 0 0 3.55 4.92 18.73 18.73 0 0 0 6.13 3.12c3.92 1.25 9.39 2 17 1.52l40.58-3.77-8 8.1h3.22a12.66 12.66 0 0 0 4.55-.81l25.94-9.71L300.63 79s2.31-.79 2.85-2.71a3.21 3.21 0 0 0 .03-1.51Z" class="animable" opacity=".5" transform-origin="233.773px 77.6402px"/>
  </g>
  <g id="freepik--plane-3--inject-137" class="animable" style="animation:1.5s Infinite linear floating;animation-delay:0s">
    <path id="elkd6ye0e3zm" fill="#52cc75" d="m382.69 237.01-4.54-.54-11.58-1.4-1.22 10.2 14.18 1.7 1.94.23 1.22-10.19z" class="animable" transform-origin="374.02px 241.135px"/>
    <path id="el42nq20z842k" d="m382.69 237.01-4.54-.54-11.58-1.4-1.22 10.2 14.18 1.7 1.94.23 1.22-10.19z" class="animable" opacity=".7" transform-origin="374.02px 241.135px"/>
    <path id="elsl1wg95u7os" fill="#52cc75" d="m337.4 221.76-1.4 9.81 13.66 1.95 1.88.27 1.39-9.82-10.28-1.47-5.25-.74z" class="animable" transform-origin="344.465px 227.775px"/>
    <path id="el21zuqc51r4m" d="m337.4 221.76-1.4 9.81 13.66 1.95 1.88.27 1.39-9.82-10.28-1.47-5.25-.74z" class="animable" opacity=".7" transform-origin="344.465px 227.775px"/>
    <path id="el6yg7vqreje" fill="#52cc75" d="M414.79 192.33a2 2 0 0 0-.54-1l-.31-.32a15.23 15.23 0 0 0-3.64-2.23l-.51-.23a31.51 31.51 0 0 0-3.92-1.44 20.3 20.3 0 0 0-4.77-.89h-.35c-1.62 0-13.56.57-28.34 1.3l-12.8.64-9.73-3.16a10.13 10.13 0 0 0-3.54-.51l-6.93.24 6.5 4.14-19.49 1a17.42 17.42 0 0 1-6.31-2 11.76 11.76 0 0 1-3.9-3.36c-1.27-1.77-2.19-3.1-2.85-4.08l-.05-.08-.24-.35-.22-.35-.05-.07-.17-.26v-.05l-.16-.24c-.2-.32-.35-.54-.43-.69l-.05-.09v-.05l-3 .12-2.09.09 1.47 12.16v.32a3.85 3.85 0 0 0 .16.94 8.11 8.11 0 0 0 2.61 3.92 14.61 14.61 0 0 0 4.65 2.62c3 1.08 7.22 1.81 13.14 1.7l31.57-1.68-6.43 6 2.49.12a10 10 0 0 0 3.56-.49l20.41-6.73 31.94-1.7a3.69 3.69 0 0 0 2.29-2 2.4 2.4 0 0 0 .03-1.26Z" class="animable" transform-origin="360.88px 191.36px"/>
    <path id="elcr9ce3wivt" d="M414.79 192.33a2 2 0 0 0-.54-1l-.31-.32a15.23 15.23 0 0 0-3.64-2.23l-.51-.23a31.51 31.51 0 0 0-3.92-1.44 20.3 20.3 0 0 0-4.77-.89h-.35c-1.62 0-13.56.57-28.34 1.3l-12.8.64-9.73-3.16a10.13 10.13 0 0 0-3.54-.51l-6.93.24 6.5 4.14-19.49 1a17.42 17.42 0 0 1-6.31-2 11.76 11.76 0 0 1-3.9-3.36c-1.27-1.77-2.19-3.1-2.85-4.08l-.05-.08-.24-.35-.22-.35-.05-.07-.17-.26v-.05l-.16-.24c-.2-.32-.35-.54-.43-.69l-.05-.09v-.05l-3 .12-2.09.09 1.47 12.16v.32a3.85 3.85 0 0 0 .16.94 8.11 8.11 0 0 0 2.61 3.92 14.61 14.61 0 0 0 4.65 2.62c3 1.08 7.22 1.81 13.14 1.7l31.57-1.68-6.43 6 2.49.12a10 10 0 0 0 3.56-.49l20.41-6.73 31.94-1.7a3.69 3.69 0 0 0 2.29-2 2.4 2.4 0 0 0 .03-1.26Z" class="animable" opacity=".7" transform-origin="360.88px 191.36px"/>
    <path id="eld9m6sc9qiys" fill="none" stroke="#263238" stroke-linecap="round" stroke-linejoin="round" stroke-width=".5" d="m352.14 225.58-.28-27.48-14.16 24.86" class="animable" transform-origin="344.92px 211.84px"/>
    <path id="elc4ckhlbjill" fill="none" stroke="#263238" stroke-linecap="round" stroke-linejoin="round" stroke-width=".5" d="m382.37 237.67-.44-41.66-15.03 39.69" class="animable" transform-origin="374.635px 216.84px"/>
  </g>
  <defs>
    <filter id="active" height="200%">
      <feMorphology in="SourceAlpha" operator="dilate" radius="2" result="DILATED"/>
      <feFlood flood-color="#32DFEC" flood-opacity="1" result="PINK"/>
      <feComposite in="PINK" in2="DILATED" operator="in" result="OUTLINE"/>
      <feMerge>
        <feMergeNode in="OUTLINE"/>
        <feMergeNode in="SourceGraphic"/>
      </feMerge>
    </filter>
    <filter id="hover" height="200%">
      <feMorphology in="SourceAlpha" operator="dilate" radius="2" result="DILATED"/>
      <feFlood flood-color="red" flood-opacity=".5" result="PINK"/>
      <feComposite in="PINK" in2="DILATED" operator="in" result="OUTLINE"/>
      <feMerge>
        <feMergeNode in="OUTLINE"/>
        <feMergeNode in="SourceGraphic"/>
      </feMerge>
      <feColorMatrix values="0 0 0 0 0 0 1 0 0 0 0 0 0 0 0 0 0 0 1 0"/>
    </filter>
  </defs>
</svg>
